<svg xmlns="http://www.w3.org/2000/svg" width="32" height="32" viewBox="0 0 24 24"><!-- Icon from Huge Icons by Hugeicons - undefined --><path fill="white" fill-rule="evenodd" d="M13 19.572H6c-2.02 0-3.14 0-3.95-.81c-.8-.8-.8-1.91-.8-3.94v-7c0-1.07 0-1.72.51-2.23c.52-.52 1.17-.52 2.24-.52h13c3.17 0 5.75 2.58 5.75 5.75s-2.58 5.75-5.75 5.75h-.25c-.01.56-.05.94-.2 1.3c-.28.67-.8 1.19-1.48 1.48c-.52.21-1.06.21-2.06.21zm-9-13c-.5 0-1.07 0-1.18.07c-.07.07-.07.68-.07 1.18v7c0 1.75.01 2.53.36 2.88c.36.36 1.14.37 2.89.37h7c.81 0 1.25 0 1.48-.09c.31-.13.55-.37.67-.67c.09-.23.09-.7.09-1.48c0-.41.34-.75.75-.75h1a4.26 4.26 0 0 0 4.25-4.25a4.26 4.26 0 0 0-4.25-4.25h-13zm13 7.5h-1c-.41 0-.75-.34-.75-.75v-5c0-.41.34-.75.75-.75h1c1.79 0 3.25 1.46 3.25 3.25s-1.46 3.25-3.25 3.25m-.25-1.5H17c.96 0 1.75-.79 1.75-1.75s-.79-1.75-1.75-1.75h-.25zm-8.291 3.77c.14.15.34.23.54.23c.21 0 .4-.09.54-.23l3.41-3.5a2.85 2.85 0 0 0 0-3.95c-1.04-1.07-2.86-1.07-3.9 0l-.05.05l-.05-.05c-1.04-1.06-2.86-1.06-3.9 0a2.85 2.85 0 0 0 0 3.95zm-2.34-4.55c-.5-.51-.5-1.34 0-1.85h.01c.47-.48 1.28-.48 1.75 0l.59.6c.28.29.79.29 1.07 0l.59-.6c.47-.48 1.28-.48 1.75 0c.5.51.5 1.34 0 1.85l-2.88 2.95z" color="white"/></svg>