<?xml version="1.0" encoding="UTF-8"?>
<svg id="Layer_2" data-name="Layer 2" xmlns="http://www.w3.org/2000/svg" viewBox="0 0 250.67 250.67">
  <defs>
    <style>
      .cls-1 {
        fill: #fff;
        stroke-width: 0px;
      }
    </style>
  </defs>
  <g id="Layer_1-2" data-name="Layer 1">
    <g>
      <path class="cls-1" d="M130.26,81.73c0-2.71-1.14-3.74-3.13-3.74s-3.13,1.02-3.13,3.74v2.89h6.27v-2.89Z"/>
      <path class="cls-1" d="M148.76,90.71c-1.93,1.21-2.89,2.77-2.89,4.76,0,2.17.9,3.31,2.71,3.31,2.17,0,3.31-1.75,3.31-5.12v-5.24c-.48.6-1.45,1.21-3.13,2.29Z"/>
      <path class="cls-1" d="M125.33,0h0C56.11,0,0,56.11,0,125.33h0c0,69.22,56.11,125.33,125.33,125.33h0c69.22,0,125.33-56.11,125.33-125.33h0C250.67,56.11,194.55,0,125.33,0ZM163.16,72.93h5.54l.12,3.55c1.08-2.65,3.25-4.16,6.03-4.16,2.95,0,5.06,1.27,6.15,4.1,1.08-2.59,3.31-4.1,6.03-4.1,4.28,0,6.87,2.71,6.87,8.98v22.35h-6.39v-21.93c0-2.11-.54-3.74-2.59-3.74-1.81,0-3.19,1.33-3.19,4.94v20.73h-6.39v-21.93c0-2.11-.54-3.74-2.59-3.74-1.81,0-3.19,1.33-3.19,4.94v20.73h-6.39v-30.73ZM149.3,77.81c-1.99,0-2.89,1.27-2.89,3.55v1.14h-6.03v-.78c0-5.97,3.07-9.4,8.98-9.4,6.39,0,8.92,3.37,8.92,10.12v12.35c0,4.34.3,7.11.72,8.86h-5.84c-.18-.36-.42-1.69-.48-3.62-1.15,2.71-3.43,4.22-6.51,4.22-4.1,0-6.69-2.95-6.69-7.71s1.99-7.59,7.41-10.24c4.4-2.17,5-2.71,5-4.4v-.6c0-2.47-.78-3.49-2.59-3.49ZM101.94,72.93h5.54l.12,5.18c.84-3.86,2.83-5.78,5.97-5.78.78,0,1.33.12,1.81.36v6.21c-.48-.12-1.08-.18-1.63-.18-3.56,0-5.42,2.47-5.42,7.23v17.71h-6.39v-30.73ZM83.87,72.93h3.8l.6-8.32h5.48v8.32h4.64v5.42h-4.64v17.59c0,1.93.66,2.65,2.47,2.65.66,0,1.39-.12,2.17-.36v5.42c-1.08.42-2.17.6-3.49.6-5.06,0-7.53-2.47-7.53-7.47v-18.44h-3.49v-5.42ZM62.12,91.25h6.27v2.89c0,3.01,1.33,4.1,3.43,4.1s3.49-1.08,3.49-4.22c0-3.49-1.45-5.66-5.78-9.46-5.54-4.88-7.41-8.38-7.41-13.2,0-6.63,3.43-10.48,9.88-10.48s9.64,3.86,9.64,10.6v1.75h-6.27v-2.17c0-3.01-1.21-4.16-3.31-4.16s-3.37,1.14-3.37,4.04c0,3.07,1.51,5.24,5.84,9.04,5.54,4.88,7.35,8.31,7.35,13.56,0,6.87-3.49,10.72-10,10.72s-9.76-3.86-9.76-10.6v-2.41ZM125.01,152.11c0,12.85-2.59,22.16-7.92,28.45-5.18,6.12-13.04,9.22-23.34,9.22-20.97,0-31.6-12.68-31.6-37.68v-41.73h20.76v43.44c0,15.37,5.21,17.49,10.84,17.49s11.1-2.08,11.1-17.49v-43.44h20.16v41.73ZM127.07,104.27c-6.15,0-9.46-3.61-9.46-10v-11.93c0-6.39,3.31-10,9.46-10s9.46,3.62,9.46,10v7.35h-12.53v5.18c0,2.71,1.08,3.74,3.19,3.74s3.19-1.02,3.19-3.74v-1.15h6.15v.54c0,6.39-3.31,10-9.46,10ZM167.75,169.21v-18.95h9.7l-16.02-27.74-16.02,27.74h9.7v38.17h-20.78v-78.05h28.78c19.1,0,31.44,11.45,31.44,29.18,0,18.93-8.55,28.44-26.8,29.65Z"/>
    </g>
  </g>
</svg>