<?xml version="1.0" encoding="UTF-8"?>
<svg id="Layer_2" data-name="Layer 2" xmlns="http://www.w3.org/2000/svg" viewBox="0 0 208.91 207.42">
  <defs>
    <style>
      .cls-1 {
        fill: #fff;
        stroke-width: 0px;
      }
    </style>
  </defs>
  <g id="Layer_1-2" data-name="Layer 1">
    <g>
      <g>
        <path class="cls-1" d="M0,51.7v-3.8h9.88v4.56c0,4.75,2.09,6.46,5.42,6.46s5.51-1.71,5.51-6.65c0-5.51-2.28-8.93-9.12-14.92C2.95,29.65,0,24.14,0,16.54,0,6.08,5.42,0,15.59,0s15.21,6.08,15.21,16.73v2.76h-9.88v-3.42c0-4.75-1.9-6.56-5.23-6.56s-5.32,1.81-5.32,6.37c0,4.85,2.38,8.27,9.22,14.26,8.74,7.7,11.6,13.12,11.6,21.38,0,10.84-5.51,16.92-15.78,16.92S0,62.35,0,51.7Z"/>
        <path class="cls-1" d="M49.9,27.56v27.75c0,3.04,1.05,4.18,3.9,4.18,1.05,0,2.19-.19,3.42-.57v8.55c-1.71.67-3.42.95-5.51.95-7.98,0-11.88-3.9-11.88-11.79v-29.08h-5.51v-8.55h5.99l.95-13.12h8.65v13.12h7.32v8.55h-7.32Z"/>
        <path class="cls-1" d="M84.02,18.63v9.79c-.76-.19-1.71-.29-2.57-.29-5.61,0-8.55,3.9-8.55,11.41v27.94h-10.08V19.01h8.74l.19,8.17c1.33-6.08,4.47-9.12,9.41-9.12,1.24,0,2.09.19,2.85.57Z"/>
        <path class="cls-1" d="M117.38,33.84v11.6h-19.77v8.17c0,4.28,1.71,5.89,5.04,5.89s5.04-1.62,5.04-5.89v-1.81h9.69v.86c0,10.08-5.23,15.78-14.92,15.78s-14.92-5.7-14.92-15.78v-18.82c0-10.07,5.23-15.78,14.92-15.78s14.92,5.7,14.92,15.78ZM107.5,37.45v-4.56c0-4.28-1.81-5.89-4.94-5.89s-4.94,1.62-4.94,5.89v4.56h9.88Z"/>
        <path class="cls-1" d="M143.61,67.48c-.29-.57-.67-2.66-.76-5.7-1.81,4.28-5.42,6.65-10.26,6.65-6.46,0-10.55-4.66-10.55-12.17s3.14-11.98,11.69-16.16c6.94-3.42,7.89-4.28,7.89-6.94v-.95c0-3.9-1.24-5.51-4.09-5.51-3.14,0-4.56,2-4.56,5.61v1.81h-9.5v-1.24c0-9.41,4.85-14.83,14.16-14.83,10.07,0,14.07,5.32,14.07,15.97v19.48c0,6.84.48,11.22,1.14,13.97h-9.22ZM141.62,51.7v-8.27c-.76.95-2.28,1.9-4.94,3.61-3.04,1.9-4.56,4.37-4.56,7.51,0,3.42,1.43,5.23,4.28,5.23,3.42,0,5.23-2.76,5.23-8.08Z"/>
        <path class="cls-1" d="M207.86,32.22v35.26h-10.07v-34.6c0-3.33-.86-5.89-4.09-5.89-2.85,0-5.04,2.09-5.04,7.79v32.7h-10.08v-34.6c0-3.33-.86-5.89-4.09-5.89-2.85,0-5.04,2.09-5.04,7.79v32.7h-10.07V19.01h8.74l.19,5.61c1.71-4.18,5.13-6.56,9.5-6.56,4.66,0,7.98,2,9.69,6.46,1.71-4.09,5.23-6.46,9.5-6.46,6.75,0,10.84,4.28,10.84,14.16Z"/>
      </g>
      <g>
        <path class="cls-1" d="M67.42,150.69c0,24.31-8.85,27.59-17.52,27.59s-17.09-3.34-17.09-27.59v-68.53H.06v65.83c0,39.44,16.77,59.43,49.84,59.43,16.26,0,28.65-4.9,36.82-14.55,8.41-9.93,12.49-24.61,12.49-44.88v-65.83h-31.8v68.53Z"/>
        <path class="cls-1" d="M146.69,205.27v-60.21h-15.3l25.26-43.76,25.26,43.76h-15.29v29.9c28.79-1.92,42.28-16.91,42.28-46.78,0-27.96-19.46-46.03-49.59-46.03h-45.41v123.11h32.78Z"/>
      </g>
    </g>
  </g>
</svg>