<?xml version="1.0" encoding="UTF-8"?>
<svg id="Layer_2" data-name="Layer 2" xmlns="http://www.w3.org/2000/svg" viewBox="0 0 371.54 78.53">
  <defs>
    <style>
      .cls-1 {
        fill: #ff86bd;
      }

      .cls-1, .cls-2 {
        stroke-width: 0px;
      }

      .cls-2 {
        fill: #6af4ff;
      }
    </style>
  </defs>
  <g id="Layer_1-2" data-name="Layer 1">
    <g>
      <g>
        <path class="cls-2" d="M0,59.12v-4.35h11.3v5.22c0,5.43,2.39,7.39,6.19,7.39s6.3-1.96,6.3-7.61c0-6.3-2.61-10.22-10.43-17.06C3.37,33.91,0,27.6,0,18.91,0,6.96,6.19,0,17.82,0s17.39,6.96,17.39,19.13v3.15h-11.3v-3.91c0-5.43-2.17-7.5-5.98-7.5s-6.09,2.07-6.09,7.28c0,5.54,2.72,9.45,10.54,16.3,10,8.8,13.26,15,13.26,24.45,0,12.39-6.3,19.34-18.04,19.34S0,71.29,0,59.12Z"/>
        <path class="cls-2" d="M57.05,31.52v31.73c0,3.48,1.2,4.78,4.46,4.78,1.2,0,2.5-.22,3.91-.65v9.78c-1.96.76-3.91,1.09-6.3,1.09-9.13,0-13.58-4.46-13.58-13.48V31.52h-6.3v-9.78h6.85l1.09-15h9.89v15h8.37v9.78h-8.37Z"/>
        <path class="cls-2" d="M96.07,21.3v11.19c-.87-.22-1.96-.33-2.93-.33-6.41,0-9.78,4.46-9.78,13.04v31.95h-11.52V21.74h10l.22,9.35c1.52-6.96,5.11-10.43,10.76-10.43,1.41,0,2.39.22,3.26.65Z"/>
        <path class="cls-2" d="M134.21,38.69v13.26h-22.6v9.35c0,4.89,1.96,6.74,5.76,6.74s5.76-1.85,5.76-6.74v-2.07h11.08v.98c0,11.52-5.98,18.04-17.06,18.04s-17.06-6.52-17.06-18.04v-21.52c0-11.52,5.98-18.04,17.06-18.04s17.06,6.52,17.06,18.04ZM122.91,42.82v-5.22c0-4.89-2.06-6.74-5.65-6.74s-5.65,1.85-5.65,6.74v5.22h11.3Z"/>
        <path class="cls-2" d="M164.21,77.16c-.33-.65-.76-3.04-.87-6.52-2.07,4.89-6.19,7.61-11.74,7.61-7.39,0-12.06-5.32-12.06-13.91s3.59-13.69,13.37-18.47c7.93-3.91,9.02-4.89,9.02-7.93v-1.09c0-4.46-1.41-6.3-4.67-6.3-3.59,0-5.22,2.28-5.22,6.41v2.06h-10.87v-1.41c0-10.76,5.54-16.95,16.19-16.95,11.52,0,16.08,6.09,16.08,18.26v22.28c0,7.82.54,12.82,1.3,15.98h-10.54ZM161.93,59.12v-9.45c-.87,1.09-2.61,2.17-5.65,4.13-3.48,2.17-5.22,5-5.22,8.59,0,3.91,1.63,5.98,4.89,5.98,3.91,0,5.98-3.15,5.98-9.24Z"/>
        <path class="cls-2" d="M237.67,36.84v40.32h-11.52v-39.56c0-3.8-.98-6.74-4.67-6.74-3.26,0-5.76,2.39-5.76,8.91v37.38h-11.52v-39.56c0-3.8-.98-6.74-4.67-6.74-3.26,0-5.76,2.39-5.76,8.91v37.38h-11.52V21.74h10l.22,6.41c1.96-4.78,5.87-7.5,10.87-7.5,5.32,0,9.13,2.28,11.08,7.39,1.96-4.67,5.98-7.39,10.87-7.39,7.72,0,12.39,4.89,12.39,16.19Z"/>
      </g>
      <g>
        <path class="cls-1" d="M287.45,44.81c0,14.45-5.26,16.4-10.41,16.4s-10.16-1.99-10.16-16.4V4.08h-19.46v39.13c0,23.44,9.97,35.32,29.62,35.32,9.66,0,17.03-2.91,21.88-8.65,5-5.9,7.43-14.63,7.43-26.68V4.08h-18.9v40.73Z"/>
        <path class="cls-1" d="M334.56,77.25v-35.79h-9.09l15.02-26.01,15.02,26.01h-9.09v17.77c17.11-1.14,25.13-10.05,25.13-27.8,0-16.62-11.57-27.36-29.47-27.36h-26.99v73.17h19.48Z"/>
      </g>
    </g>
  </g>
</svg>