<?xml version="1.0" encoding="UTF-8" standalone="no"?>
<!DOCTYPE svg PUBLIC "-//W3C//DTD SVG 1.1//EN" "http://www.w3.org/Graphics/SVG/1.1/DTD/svg11.dtd">
<svg xmlns="http://www.w3.org/2000/svg" width="32" height="32" viewBox="0 0 24 24">

  <defs>
    <mask id="cutout" maskUnits="userSpaceOnUse">
      <rect x="0" y="0" width="24" height="24" fill="white"/>
      <path d="M12 9.75a.75.75 0 0 1 .75.75v2.25H15a.75.75 0 0 1 0 1.5h-2.25v2.25a.75.75 0 0 1-1.5 0v-2.25H9a.75.75 0 0 1 0-1.5h2.25V10.5a.75.75 0 0 1 .75-.75" fill="black" fill-rule="evenodd" clip-rule="evenodd"/>
    </mask>
  </defs>

  <g mask="url(#cutout)">
    <path d="M9.804 3.803c-.27-.053-.553-.053-.917-.053H6.17c-.535 0-.98 0-1.345.03c-.38.03-.736.098-1.073.27A2.75 2.75 0 0 0 2.55 5.252c-.172.337-.24.693-.27 1.073c-.03.365-.03.81-.03 1.345v8.66c0 .535 0 .98.03 1.345c.03.38.098.736.27 1.073a2.75 2.75 0 0 0 1.202 1.202c.337.172.693.24 1.073.27c.365.03.81.03 1.344.03h11.662c.534 0 .98 0 1.344-.03c.38-.03.736-.098 1.073-.27a2.75 2.75 0 0 0 1.202-1.201c.172-.338.24-.694.27-1.074c.03-.364.03-.81.03-1.344V10.67c0-.535 0-.98-.03-1.345c-.03-.38-.098-.736-.27-1.073a2.75 2.75 0 0 0-1.2-1.202c-.338-.172-.694-.24-1.074-.27c-.365-.03-.81-.03-1.345-.03h-4.153c-.458 0-.582-.003-.686-.024a1.25 1.25 0 0 1-.742-.458c-.065-.084-.123-.194-.328-.603l-.029-.058c-.162-.325-.29-.58-.457-.796a2.75 2.75 0 0 0-1.631-1.008" fill="rgb(23,23,23)" fill-rule="evenodd" clip-rule="evenodd"/>
  </g>
</svg>