<?xml version="1.0" encoding="UTF-8" standalone="no"?>
<!DOCTYPE svg PUBLIC "-//W3C//DTD SVG 1.1//EN" "http://www.w3.org/Graphics/SVG/1.1/DTD/svg11.dtd">
<svg width="100%" height="100%" viewBox="0 0 67 67" version="1.1" xmlns="http://www.w3.org/2000/svg" xmlns:xlink="http://www.w3.org/1999/xlink" xml:space="preserve" xmlns:serif="http://www.serif.com/" style="fill-rule:evenodd;clip-rule:evenodd;stroke-linecap:round;stroke-linejoin:round;stroke-miterlimit:1.5;">
    <g transform="matrix(0.900336,0,0,0.879234,1.54609,-5.43066)">
        <g transform="matrix(1,0,0,1,-2.09093,5.85347)">
            <path d="M45.576,2.598L49.378,2.598C51.143,2.598 52.576,4.031 52.576,5.797L52.576,12.834" style="fill:none;stroke:white;stroke-width:4.68px;"/>
        </g>
        <g transform="matrix(1,0,0,1,-2.09093,5.85347)">
            <path d="M52.576,12.834L52.576,15.109" style="fill:none;stroke:white;stroke-width:4.68px;"/>
        </g>
        <g transform="matrix(1,0,0,1,-2.09093,5.85347)">
            <path d="M14.813,34.586L13.702,34.586" style="fill:none;stroke:white;stroke-width:4.68px;"/>
        </g>
        <g transform="matrix(1,0,0,1,-2.09093,5.85347)">
            <path d="M13.702,34.586L5.794,34.586C4.028,34.586 2.595,33.153 2.595,31.387L2.595,27.586" style="fill:none;stroke:white;stroke-width:4.68px;"/>
        </g>
        <g transform="matrix(1,0,0,1,-2.09093,5.85347)">
            <path d="M2.595,27.586L2.595,25.487" style="fill:none;stroke:white;stroke-width:4.68px;"/>
        </g>
        <g transform="matrix(1,0,0,1,-2.09093,5.85347)">
            <path d="M2.595,25.487L2.595,24.35" style="fill:none;stroke:white;stroke-width:4.68px;"/>
        </g>
        <g transform="matrix(1,0,0,1,-2.09093,5.85347)">
            <path d="M2.595,24.35L2.595,20.586" style="fill:none;stroke:white;stroke-width:4.68px;"/>
        </g>
        <g transform="matrix(1,0,0,1,-2.09093,5.85347)">
            <path d="M2.595,20.586L2.595,5.797C2.595,4.031 4.028,2.598 5.794,2.598L38.576,2.598" style="fill:none;stroke:white;stroke-width:4.68px;"/>
        </g>
        <g transform="matrix(1,0,0,1,-2.09093,5.85347)">
            <path d="M38.576,2.598L42.58,2.598" style="fill:none;stroke:white;stroke-width:4.68px;"/>
        </g>
        <g transform="matrix(1,0,0,1,-2.09093,5.85347)">
            <path d="M42.58,2.598L43.691,2.598" style="fill:none;stroke:white;stroke-width:4.68px;"/>
        </g>
        <g transform="matrix(1,0,0,1,-2.09093,5.85347)">
            <path d="M43.691,2.598L45.576,2.598" style="fill:none;stroke:white;stroke-width:4.68px;"/>
        </g>
    </g>
    <g transform="matrix(0.900336,0,0,0.879234,12.4151,5.43832)">
        <g transform="matrix(1,0,0,1,-2.09093,5.85347)">
            <path d="M45.576,2.598L49.378,2.598C51.143,2.598 52.576,4.031 52.576,5.797L52.576,31.387C52.576,33.153 51.143,34.586 49.378,34.586L5.794,34.586C4.028,34.586 2.595,33.153 2.595,31.387L2.595,27.586" style="fill:none;stroke:white;stroke-width:4.68px;"/>
        </g>
        <g transform="matrix(1,0,0,1,-2.09093,5.85347)">
            <path d="M2.595,27.586L2.595,25.487" style="fill:none;stroke:white;stroke-width:4.68px;"/>
        </g>
        <g transform="matrix(1,0,0,1,-2.09093,5.85347)">
            <path d="M2.595,25.487L2.595,24.35" style="fill:none;stroke:white;stroke-width:4.68px;"/>
        </g>
        <g transform="matrix(1,0,0,1,-2.09093,5.85347)">
            <path d="M2.595,24.35L2.595,22.075" style="fill:none;stroke:white;stroke-width:4.68px;"/>
        </g>
        <g transform="matrix(1,0,0,1,-2.09093,5.85347)">
            <path d="M2.595,22.075L2.595,20.586" style="fill:none;stroke:white;stroke-width:4.68px;"/>
        </g>
        <g transform="matrix(1,0,0,1,-2.09093,5.85347)">
            <path d="M2.595,20.586L2.595,5.797C2.595,4.031 4.028,2.598 5.794,2.598L38.576,2.598" style="fill:none;stroke:white;stroke-width:4.68px;"/>
        </g>
        <g transform="matrix(1,0,0,1,-2.09093,5.85347)">
            <path d="M38.576,2.598L40.359,2.598" style="fill:none;stroke:white;stroke-width:4.68px;"/>
        </g>
        <g transform="matrix(1,0,0,1,-2.09093,5.85347)">
            <path d="M40.359,2.598L41.469,2.598" style="fill:none;stroke:white;stroke-width:4.68px;"/>
        </g>
        <g transform="matrix(1,0,0,1,-2.09093,5.85347)">
            <path d="M41.469,2.598L42.58,2.598" style="fill:none;stroke:white;stroke-width:4.68px;"/>
        </g>
        <g transform="matrix(1,0,0,1,-2.09093,5.85347)">
            <path d="M42.58,2.598L43.691,2.598" style="fill:none;stroke:white;stroke-width:4.68px;"/>
        </g>
        <g transform="matrix(1,0,0,1,-2.09093,5.85347)">
            <path d="M43.691,2.598L45.576,2.598" style="fill:none;stroke:white;stroke-width:4.68px;"/>
        </g>
    </g>
    <g transform="matrix(3.51302,0,0,3.51302,17.8177,10.7916)">
        <path d="M8,0C5.801,0 4,1.801 4,4L4,5C4,5.551 4.449,6 5,6C5.551,6 6,5.551 6,5L6,4C6,2.875 6.875,2 8,2C9.125,2 10,2.875 10,4L10,8L4,8C2.891,8 2,8.891 2,10L2,15C2,15.555 2.445,16 3,16L13,16C13.555,16 14,15.555 14,15L14,10C14,8.891 13.109,8 12,8L12,4C12,1.801 10.199,0 8,0Z" style="fill:rgb(154,153,150);fill-rule:nonzero;"/>
    </g>
</svg>
