<?xml version="1.0" encoding="UTF-8" standalone="no"?>
<!DOCTYPE svg PUBLIC "-//W3C//DTD SVG 1.1//EN" "http://www.w3.org/Graphics/SVG/1.1/DTD/svg11.dtd">
<svg width="100%" height="100%" viewBox="0 0 24 24" version="1.1" xmlns="http://www.w3.org/2000/svg" xmlns:xlink="http://www.w3.org/1999/xlink" xml:space="preserve" xmlns:serif="http://www.serif.com/" style="fill-rule:evenodd;clip-rule:evenodd;stroke-linecap:round;stroke-linejoin:round;stroke-miterlimit:1.5;">
    <g transform="matrix(1.332,0,0,1.332,5.35199,4.01999)">
        <g transform="matrix(0.75075,0,0,0.75075,-4.01801,-3.01801)">
            <path d="M1.085,9.814L1.085,4C1.085,2.396 2.387,1.093 3.991,1.093L14.973,1.093" style="fill:rgb(254,254,254);fill-opacity:0;stroke:rgb(254,254,254);stroke-width:2px;"/>
        </g>
        <g transform="matrix(0.75075,0,0,0.75075,-1.82926,-0.835727)">
            <path d="M5.45,12.721L3.991,12.721C2.387,12.721 1.085,11.418 1.085,9.814L1.085,4C1.085,2.396 2.387,1.093 3.991,1.093L14.973,1.093C16.578,1.093 17.88,2.396 17.88,4" style="fill:rgb(254,254,254);fill-opacity:0;stroke:rgb(254,254,254);stroke-width:2px;"/>
        </g>
        <g transform="matrix(0.81596,0,0,0.81596,2.57656,2.7606)">
            <path d="M8,1C5.801,1 4,2.801 4,5L4,7C2.891,7 2,7.891 2,9L2,14C2,14.555 2.445,15 3,15L13,15C13.555,15 14,14.555 14,14L14,9C14,7.891 13.109,7 12,7L12,5C12,2.801 10.199,1 8,1ZM8,3C9.125,3 10,3.875 10,5L10,7L6,7L6,5C6,3.875 6.875,3 8,3Z" style="fill:rgb(254,254,254);fill-rule:nonzero;"/>
        </g>
    </g>
</svg>
