<?xml version="1.0" encoding="UTF-8" standalone="no"?>
<!DOCTYPE svg PUBLIC "-//W3C//DTD SVG 1.1//EN" "http://www.w3.org/Graphics/SVG/1.1/DTD/svg11.dtd">
<svg width="100%" height="100%" viewBox="0 0 24 24" version="1.1" xmlns="http://www.w3.org/2000/svg" xmlns:xlink="http://www.w3.org/1999/xlink" xml:space="preserve" xmlns:serif="http://www.serif.com/" style="fill-rule:evenodd;clip-rule:evenodd;stroke-linecap:round;stroke-linejoin:round;stroke-miterlimit:1.5;">
    <g transform="matrix(1.332,0,0,1.332,5.35199,4.01999)">
        <g transform="matrix(0.75075,0,0,0.75075,-4.01801,-3.01801)">
            <path d="M1.085,9.814L1.085,4C1.085,2.396 2.387,1.093 3.991,1.093L14.973,1.093" style="fill:rgb(254,254,254);fill-opacity:0;stroke:rgb(254,254,254);stroke-width:2px;"/>
        </g>
        <g transform="matrix(0.75075,0,0,0.75075,-1.82926,-0.835727)">
            <path d="M5.45,12.721L3.991,12.721C2.387,12.721 1.085,11.418 1.085,9.814L1.085,4C1.085,2.396 2.387,1.093 3.991,1.093L14.973,1.093" style="fill:rgb(254,254,254);fill-opacity:0;stroke:rgb(254,254,254);stroke-width:2px;"/>
        </g>
        <g transform="matrix(0.812615,0,0,0.812615,2.62339,1.99816)">
            <path d="M8,0C5.801,0 4,1.801 4,4L4,5C4,5.551 4.449,6 5,6C5.551,6 6,5.551 6,5L6,4C6,2.875 6.875,2 8,2C9.125,2 10,2.875 10,4L10,8L4,8C2.891,8 2,8.891 2,10L2,15C2,15.555 2.445,16 3,16L13,16C13.555,16 14,15.555 14,15L14,10C14,8.891 13.109,8 12,8L12,4C12,1.801 10.199,0 8,0Z" style="fill:rgb(154,153,150);fill-rule:nonzero;"/>
        </g>
    </g>
</svg>
