<?xml version="1.0" encoding="UTF-8" standalone="no"?>
<!DOCTYPE svg PUBLIC "-//W3C//DTD SVG 1.1//EN" "http://www.w3.org/Graphics/SVG/1.1/DTD/svg11.dtd">
<svg width="100%" height="100%" viewBox="0 0 24 24" version="1.1" xmlns="http://www.w3.org/2000/svg" xmlns:xlink="http://www.w3.org/1999/xlink" xml:space="preserve" xmlns:serif="http://www.serif.com/" style="fill-rule:evenodd;clip-rule:evenodd;stroke-linejoin:round;stroke-miterlimit:2;">
    <g transform="matrix(1.35158,0,0,1.35158,12,12)">
        <g transform="matrix(1,0,0,1,-16,-16)">
            <g transform="matrix(1.33333,0,0,1.33333,0,0)">
                <path d="M15,18C14.732,18 14.498,17.9 14.299,17.701C14.1,17.502 14,17.268 14,17L14,7C14,6.732 14.1,6.498 14.299,6.299C14.498,6.1 14.732,6 15,6L16.5,6C16.768,6 17.002,6.1 17.201,6.299C17.4,6.498 17.5,6.732 17.5,7L17.5,17C17.5,17.268 17.4,17.502 17.201,17.701C17.002,17.9 16.768,18 16.5,18L15,18ZM7.5,18C7.232,18 6.998,17.9 6.799,17.701C6.6,17.502 6.5,17.268 6.5,17L6.5,7C6.5,6.732 6.6,6.498 6.799,6.299C6.998,6.1 7.232,6 7.5,6L9,6C9.268,6 9.502,6.1 9.701,6.299C9.9,6.498 10,6.732 10,7L10,17C10,17.268 9.9,17.502 9.701,17.701C9.502,17.9 9.268,18 9,18L7.5,18Z" style="fill:white;fill-rule:nonzero;"/>
            </g>
        </g>
    </g>
</svg>
