<?xml version="1.0" encoding="UTF-8" standalone="no"?>
<!DOCTYPE svg PUBLIC "-//W3C//DTD SVG 1.1//EN" "http://www.w3.org/Graphics/SVG/1.1/DTD/svg11.dtd">
<svg width="100%" height="100%" viewBox="0 0 24 24" version="1.1" xmlns="http://www.w3.org/2000/svg" xmlns:xlink="http://www.w3.org/1999/xlink" xml:space="preserve" xmlns:serif="http://www.serif.com/" style="fill-rule:evenodd;clip-rule:evenodd;stroke-linejoin:round;stroke-miterlimit:2;">
    <g>
        <path d="M8.377,15.493C8.377,16.437 8.884,18.177 7.639,18.177C5.287,18.177 0,14.108 0,9.089C0,4.118 3.994,0 8.969,0L9.089,0C13.737,0 17.571,3.631 18.112,8.154C18.155,8.515 17.875,9.286 17.091,9.286C16.174,9.286 15.865,8.39 15.831,8.162C15.667,7.032 15.217,5.957 14.52,5.042L12.15,5.042L12.15,5.037C11.707,5.042 11.347,5.401 11.347,5.845L11.347,6.186C11.343,6.635 10.984,6.994 10.535,6.994C10.003,7.033 9.599,7.5 9.643,8.037L9.643,9.444C9.643,9.901 10.012,10.269 10.469,10.269C10.819,10.376 11.023,10.744 10.921,11.099C10.921,11.099 8.377,12.076 8.377,15.493ZM6.737,2.796L6.732,2.796L6.737,2.796C6.137,3.018 5.578,3.324 5.068,3.701L5.024,3.737C4.712,3.967 4.425,4.23 4.158,4.514L4.096,4.57C2.956,5.818 2.316,7.452 2.316,9.147C2.316,11.09 3.15,12.941 4.607,14.232L4.607,10.988C4.611,10.483 4.202,10.078 3.701,10.078C3.199,10.078 2.796,9.675 2.796,9.173C2.796,8.672 3.199,8.267 3.701,8.267C4.202,8.267 4.607,7.859 4.607,7.362C4.611,6.861 5.015,6.457 5.516,6.457C6.018,6.457 6.421,6.048 6.421,5.547L6.421,4.202C6.421,3.946 6.63,3.737 6.887,3.737C7.145,3.718 7.34,3.497 7.327,3.24C7.229,2.993 7.001,2.819 6.737,2.796ZM9.55,4.278C9.186,4.278 8.889,4.57 8.889,4.94L8.889,5.658C8.889,6.022 9.186,6.319 9.55,6.319C9.915,6.319 10.206,6.022 10.206,5.658L10.206,4.94C10.206,4.57 9.915,4.278 9.55,4.278ZM11.88,3.289C11.552,3.289 11.29,3.55 11.29,3.883C11.29,4.211 11.552,4.477 11.88,4.477L13.917,4.477C13.957,4.477 13.996,4.474 14.036,4.465C13.598,4.002 13.1,3.608 12.555,3.289L11.88,3.289Z" style="fill:rgb(154,153,150);"/>
    </g>
    <g transform="matrix(0.871897,0,0,0.871897,10.0497,10.0513)">
        <path d="M7.406,1C6.793,1.008 6.172,1.09 5.559,1.254C2.285,2.133 0,5.109 0,8.5C0,11.891 2.285,14.867 5.559,15.742C8.832,16.621 12.301,15.184 13.996,12.25C14.273,11.77 14.105,11.16 13.629,10.883C13.152,10.609 12.539,10.773 12.262,11.25C11.016,13.41 8.484,14.457 6.074,13.812C3.668,13.168 2,10.992 2,8.5C2,6.004 3.668,3.832 6.074,3.187C8.484,2.543 11.016,3.59 12.262,5.75C12.32,5.836 12.387,5.914 12.465,5.977L12.445,5.992L12.438,6L11,6C10.449,6 10,6.449 10,7C10,7 10,8 11,8L16,8L16,3C16,3 16.004,2 15,2C14.449,2 14,2.449 14,3L14,4.687L13.984,4.699L13.973,4.711C12.695,2.531 10.441,1.191 8.02,1.02C7.816,1.004 7.613,1 7.406,1Z" style="fill:rgb(254,254,254);fill-rule:nonzero;"/>
    </g>
</svg>
