<?xml version="1.0" encoding="UTF-8" standalone="no"?>
<!DOCTYPE svg PUBLIC "-//W3C//DTD SVG 1.1//EN" "http://www.w3.org/Graphics/SVG/1.1/DTD/svg11.dtd">
<svg width="100%" height="100%" viewBox="0 0 67 67" version="1.1" xmlns="http://www.w3.org/2000/svg" xmlns:xlink="http://www.w3.org/1999/xlink" xml:space="preserve" xmlns:serif="http://www.serif.com/" style="fill-rule:evenodd;clip-rule:evenodd;stroke-linejoin:round;stroke-miterlimit:2;">
    <g transform="matrix(3.125,0,0,3.125,1,-2.14142)">
        <path d="M7,1.008C6.703,1.004 6.422,1.133 6.23,1.359L3,5L2,5C0.906,5 0,5.844 0,7L0,9C0,10.09 0.91,11 2,11L3,11L6.23,14.641C6.441,14.895 6.723,15.004 7,15L7,1.008ZM13.461,1.969C13.27,1.965 13.074,2.023 12.902,2.137C12.445,2.449 12.324,3.07 12.633,3.527C14.457,6.234 14.457,9.766 12.633,12.473C12.324,12.93 12.445,13.551 12.902,13.863C13.359,14.172 13.98,14.051 14.293,13.594C15.43,11.902 16,9.953 16,8C16,6.047 15.43,4.098 14.293,2.406C14.098,2.121 13.781,1.969 13.461,1.969ZM10.039,3.988C9.816,3.98 9.586,4.047 9.395,4.191C9.133,4.391 9,4.691 9,4.996L9,5.055C9.012,5.246 9.074,5.43 9.199,5.59C10.273,7.02 10.273,8.98 9.199,10.406C9.074,10.57 9.012,10.754 9,10.941L9,11.004C9,11.309 9.133,11.609 9.395,11.809C9.836,12.141 10.461,12.051 10.793,11.609C11.598,10.543 12,9.273 12,8C12,6.727 11.598,5.457 10.793,4.387C10.609,4.141 10.328,4.004 10.039,3.988Z" style="fill:rgb(154,153,150);fill-rule:nonzero;"/>
    </g>
    <g transform="matrix(2.63664,0,0,2.63664,24.8138,24.8185)">
        <path d="M7.406,1C6.793,1.008 6.172,1.09 5.559,1.254C2.285,2.133 0,5.109 0,8.5C0,11.891 2.285,14.867 5.559,15.742C8.832,16.621 12.301,15.184 13.996,12.25C14.273,11.77 14.105,11.16 13.629,10.883C13.152,10.609 12.539,10.773 12.262,11.25C11.016,13.41 8.484,14.457 6.074,13.812C3.668,13.168 2,10.992 2,8.5C2,6.004 3.668,3.832 6.074,3.187C8.484,2.543 11.016,3.59 12.262,5.75C12.32,5.836 12.387,5.914 12.465,5.977L12.445,5.992L12.438,6L11,6C10.449,6 10,6.449 10,7C10,7 10,8 11,8L16,8L16,3C16,3 16.004,2 15,2C14.449,2 14,2.449 14,3L14,4.687L13.984,4.699L13.973,4.711C12.695,2.531 10.441,1.191 8.02,1.02C7.816,1.004 7.613,1 7.406,1Z" style="fill:white;fill-rule:nonzero;"/>
    </g>
</svg>
