<?xml version="1.0" encoding="UTF-8" standalone="no"?>
<!DOCTYPE svg PUBLIC "-//W3C//DTD SVG 1.1//EN" "http://www.w3.org/Graphics/SVG/1.1/DTD/svg11.dtd">
<svg width="100%" height="100%" viewBox="0 0 67 67" version="1.1" xmlns="http://www.w3.org/2000/svg" xmlns:xlink="http://www.w3.org/1999/xlink" xml:space="preserve" xmlns:serif="http://www.serif.com/" style="fill-rule:evenodd;clip-rule:evenodd;stroke-linejoin:round;stroke-miterlimit:2;">
    <g transform="matrix(3.125,0,0,3.125,1,1)">
        <path d="M7.895,0C3.516,0 0,3.625 0,8C0,12.418 3.582,16 8,16C12.418,16 16,12.418 16,8C16,3.582 12.418,0 8,0L7.895,0ZM5.926,2.461C6.16,2.48 6.363,2.633 6.449,2.852C6.461,3.078 6.289,3.273 6.062,3.289C5.836,3.289 5.652,3.473 5.652,3.699L5.652,4.883C5.652,5.324 5.297,5.684 4.855,5.684C4.414,5.684 4.059,6.039 4.055,6.48C4.055,6.918 3.699,7.277 3.258,7.277C2.816,7.277 2.461,7.633 2.461,8.074C2.461,8.516 2.816,8.871 3.258,8.871C3.699,8.871 4.059,9.227 4.055,9.672L4.055,12.527C2.773,11.391 2.039,9.762 2.039,8.051C2.039,6.559 2.602,5.121 3.605,4.023L3.66,3.973C3.895,3.723 4.148,3.492 4.422,3.289L4.461,3.258C4.91,2.926 5.402,2.656 5.93,2.461L5.926,2.461ZM10.457,2.895L11.051,2.895C11.531,3.176 11.969,3.523 12.355,3.93C12.32,3.938 12.285,3.941 12.25,3.941L10.457,3.941C10.168,3.941 9.938,3.707 9.938,3.418C9.938,3.125 10.168,2.895 10.457,2.895ZM8.406,3.766C8.727,3.766 8.984,4.023 8.984,4.348L8.984,4.98C8.984,5.301 8.727,5.562 8.406,5.562C8.086,5.562 7.824,5.301 7.824,4.98L7.824,4.348C7.824,4.023 8.086,3.766 8.406,3.766ZM10.695,4.438L12.781,4.438C13.543,5.438 13.969,6.656 13.996,7.914C13.871,8.02 13.719,8.078 13.555,8.082L12.426,8.074C11.754,8.074 11.211,8.621 11.207,9.293L11.207,10.641C11.211,11.082 10.852,11.438 10.414,11.438C9.969,11.441 9.613,11.082 9.613,10.641L9.613,9.77C9.703,9.457 9.523,9.133 9.215,9.039C8.813,9.039 8.488,8.715 8.488,8.313L8.488,7.074C8.449,6.602 8.805,6.191 9.273,6.156C9.668,6.156 9.984,5.84 9.988,5.445L9.988,5.145C9.988,4.754 10.305,4.438 10.695,4.434L10.695,4.438Z" style="fill:rgb(154,153,150);fill-rule:nonzero;"/>
    </g>
    <g transform="matrix(2.63664,0,0,2.63664,24.8138,24.8185)">
        <path d="M7.406,1C6.793,1.008 6.172,1.09 5.559,1.254C2.285,2.133 0,5.109 0,8.5C0,11.891 2.285,14.867 5.559,15.742C8.832,16.621 12.301,15.184 13.996,12.25C14.273,11.77 14.105,11.16 13.629,10.883C13.152,10.609 12.539,10.773 12.262,11.25C11.016,13.41 8.484,14.457 6.074,13.812C3.668,13.168 2,10.992 2,8.5C2,6.004 3.668,3.832 6.074,3.187C8.484,2.543 11.016,3.59 12.262,5.75C12.32,5.836 12.387,5.914 12.465,5.977L12.445,5.992L12.438,6L11,6C10.449,6 10,6.449 10,7C10,7 10,8 11,8L16,8L16,3C16,3 16.004,2 15,2C14.449,2 14,2.449 14,3L14,4.687L13.984,4.699L13.973,4.711C12.695,2.531 10.441,1.191 8.02,1.02C7.816,1.004 7.613,1 7.406,1Z" style="fill:white;fill-rule:nonzero;"/>
    </g>
</svg>
