<?xml version="1.0" encoding="UTF-8" standalone="no"?>
<!DOCTYPE svg PUBLIC "-//W3C//DTD SVG 1.1//EN" "http://www.w3.org/Graphics/SVG/1.1/DTD/svg11.dtd">
<svg width="100%" height="100%" viewBox="0 0 21 21" version="1.1" xmlns="http://www.w3.org/2000/svg" xmlns:xlink="http://www.w3.org/1999/xlink" xml:space="preserve" xmlns:serif="http://www.serif.com/" style="fill-rule:evenodd;clip-rule:evenodd;stroke-linejoin:round;stroke-miterlimit:2;">
    <g transform="matrix(0.861145,0,0,0.861145,3.27958,3.53809)">
        <g transform="matrix(1.22878,0,0,1.22878,-6.36067,-7.09172)">
            <g>
                <g>
                    <path d="M4,11L16,11C17.886,11 18.828,11 19.414,11.586C20,12.172 20,13.114 20,15L20,16C20,18.828 20,20.243 19.121,21.121C18.243,22 16.828,22 14,22L10,22C7.172,22 5.757,22 4.879,21.121C4,20.243 4,18.828 4,16L4,11ZM13.918,3.166L9.15,4.444C9.171,4.532 9.177,4.623 9.167,4.713L8.563,9.777L13.342,8.497C13.315,8.4 13.307,8.3 13.318,8.2L13.918,3.166ZM14.841,8.095L18.249,7.182C18.473,7.122 18.585,7.092 18.674,7.048C19.036,6.869 19.255,6.489 19.229,6.086C19.223,5.988 19.193,5.876 19.133,5.651C18.953,4.978 18.862,4.641 18.731,4.376C18.195,3.29 17.052,2.631 15.844,2.71C15.705,2.721 15.567,2.742 15.431,2.772C15.451,2.855 15.456,2.941 15.445,3.03L14.841,8.095ZM7.063,10.18C7.037,10.083 7.029,9.982 7.04,9.882L7.64,4.848L7.537,4.876C5.73,5.36 4.829,5.602 4.26,6.17C3.888,6.542 3.62,7.006 3.484,7.515C3.276,8.29 3.517,9.195 4,11L7.063,10.18Z" style="fill:rgb(154,153,150);fill-rule:nonzero;"/>
                </g>
            </g>
        </g>
        <g transform="matrix(0.649373,0,0,0.649373,0.592174,5.1927)">
            <g>
                <g>
                    <path d="M19,13L19,18C19,18.55 18.55,19 18,19L6,19C5.45,19 5,18.55 5,18L5,13C5,12.45 4.55,12 4,12C3.45,12 3,12.45 3,13L3,19C3,20.1 3.9,21 5,21L19,21C20.1,21 21,20.1 21,19L21,13C21,12.45 20.55,12 20,12C19.45,12 19,12.45 19,13M13,12.67L14.88,10.79C15.067,10.603 15.321,10.498 15.585,10.498C16.132,10.498 16.582,10.948 16.582,11.495C16.582,11.759 16.477,12.013 16.29,12.2L12.7,15.79C12.513,15.977 12.259,16.082 11.995,16.082C11.731,16.082 11.477,15.977 11.29,15.79L7.7,12.2C7.513,12.013 7.408,11.759 7.408,11.495C7.408,10.948 7.858,10.498 8.405,10.498C8.669,10.498 8.923,10.603 9.11,10.79L11,12.67L11,4C11,3.45 11.45,3 12,3C12.55,3 13,3.45 13,4L13,12.67Z" style="fill-rule:nonzero;"/>
                </g>
            </g>
        </g>
    </g>
</svg>
