<?xml version="1.0" encoding="UTF-8" standalone="no"?>
<!DOCTYPE svg PUBLIC "-//W3C//DTD SVG 1.1//EN" "http://www.w3.org/Graphics/SVG/1.1/DTD/svg11.dtd">
<svg width="100%" height="100%" viewBox="0 0 24 24" version="1.1" xmlns="http://www.w3.org/2000/svg" xmlns:xlink="http://www.w3.org/1999/xlink" xml:space="preserve" xmlns:serif="http://www.serif.com/" style="fill-rule:evenodd;clip-rule:evenodd;stroke-linejoin:round;stroke-miterlimit:2;">
    <g transform="matrix(1.1805,0,0,1.1805,-2.16608,-2.16608)">
        <g>
            <g>
                <path d="M10.825,22C10.375,22 9.988,21.85 9.663,21.55C9.338,21.25 9.142,20.883 9.075,20.45L8.85,18.8C8.633,18.717 8.429,18.617 8.238,18.5C8.047,18.383 7.859,18.258 7.675,18.125L6.125,18.775C5.708,18.958 5.292,18.975 4.875,18.825C4.458,18.675 4.133,18.408 3.9,18.025L2.725,15.975C2.492,15.592 2.425,15.183 2.525,14.75C2.625,14.317 2.85,13.958 3.2,13.675L4.525,12.675C4.508,12.558 4.5,12.446 4.5,12.337L4.5,11.662C4.5,11.554 4.508,11.442 4.525,11.325L3.2,10.325C2.85,10.042 2.625,9.683 2.525,9.25C2.425,8.817 2.492,8.408 2.725,8.025L3.9,5.975C4.133,5.592 4.458,5.325 4.875,5.175C5.292,5.025 5.708,5.042 6.125,5.225L7.675,5.875C7.858,5.742 8.05,5.617 8.25,5.5C8.45,5.383 8.65,5.283 8.85,5.2L9.075,3.55C9.142,3.117 9.338,2.75 9.663,2.45C9.988,2.15 10.376,2 10.825,2L13.175,2C13.625,2 14.013,2.15 14.338,2.45C14.663,2.75 14.859,3.117 14.925,3.55L15.15,5.2C15.367,5.283 15.571,5.383 15.763,5.5C15.955,5.617 16.142,5.742 16.325,5.875L17.875,5.225C18.292,5.042 18.708,5.025 19.125,5.175C19.542,5.325 19.867,5.592 20.1,5.975L21.275,8.025C21.508,8.408 21.575,8.817 21.475,9.25C21.375,9.683 21.15,10.042 20.8,10.325L19.475,11.325C19.492,11.442 19.5,11.554 19.5,11.663L19.5,12.337C19.5,12.446 19.483,12.558 19.45,12.675L20.775,13.675C21.125,13.958 21.35,14.317 21.45,14.75C21.55,15.183 21.483,15.592 21.25,15.975L20.05,18.025C19.817,18.408 19.492,18.675 19.075,18.825C18.658,18.975 18.242,18.958 17.825,18.775L16.325,18.125C16.142,18.258 15.95,18.383 15.75,18.5C15.55,18.617 15.35,18.717 15.15,18.8L14.925,20.45C14.858,20.883 14.663,21.25 14.338,21.55C14.013,21.85 13.626,22 13.175,22L10.825,22ZM12.05,15.5C13.017,15.5 13.842,15.158 14.525,14.475C15.208,13.792 15.55,12.967 15.55,12C15.55,11.033 15.208,10.208 14.525,9.525C13.842,8.842 13.017,8.5 12.05,8.5C11.067,8.5 10.237,8.842 9.562,9.525C8.887,10.208 8.549,11.033 8.55,12C8.551,12.967 8.888,13.792 9.563,14.475C10.238,15.158 11.067,15.5 12.05,15.5" style="fill:rgb(23,23,23);fill-rule:nonzero;"/>
            </g>
        </g>
    </g>
</svg>
