<?xml version="1.0" encoding="UTF-8" standalone="no"?>
<!DOCTYPE svg PUBLIC "-//W3C//DTD SVG 1.1//EN" "http://www.w3.org/Graphics/SVG/1.1/DTD/svg11.dtd">
<svg width="100%" height="100%" viewBox="0 0 24 24" version="1.1" xmlns="http://www.w3.org/2000/svg" xmlns:xlink="http://www.w3.org/1999/xlink" xml:space="preserve" xmlns:serif="http://www.serif.com/" style="fill-rule:evenodd;clip-rule:evenodd;stroke-linejoin:round;stroke-miterlimit:2;">
    <g transform="matrix(1.3424,0,0,1.3424,-1.42403,-1.76323)">
        <g>
            <g>
                <path d="M14.168,4.872C15.165,4.207 16.5,4.922 16.5,6.12L16.5,9.383C16.5,10.581 15.165,11.296 14.168,10.631L11.223,8.668L11.777,7.836L14.723,9.799C14.805,9.854 14.901,9.883 15,9.883C15.274,9.883 15.5,9.657 15.5,9.383L15.5,6.12C15.5,5.846 15.274,5.62 15,5.62C14.901,5.62 14.805,5.649 14.723,5.704L11.777,7.668L11.223,6.836L14.168,4.872ZM13.457,17.955C13.377,18.135 13.197,18.252 13,18.252C12.93,18.252 12.861,18.237 12.797,18.209L9,16.52L9,18.25C9,18.524 8.774,18.75 8.5,18.75C8.226,18.75 8,18.524 8,18.25L8,16.52L4.203,18.208C4.139,18.236 4.07,18.251 4,18.251C3.726,18.251 3.5,18.025 3.5,17.751C3.5,17.554 3.617,17.374 3.797,17.294L8,15.427L8,11.252C8,10.978 8.226,10.752 8.5,10.752C8.774,10.752 9,10.978 9,11.252L9,15.427L13.203,17.295C13.383,17.375 13.5,17.555 13.5,17.752C13.5,17.822 13.485,17.891 13.457,17.955" style="fill:rgb(23,23,23);stroke:rgb(23,23,23);stroke-width:0.63px;"/>
                <path d="M5,5.752C5,4.929 5.677,4.252 6.5,4.252L10.5,4.252C11.323,4.252 12,4.929 12,5.752L12,9.752C12,10.575 11.323,11.252 10.5,11.252L6.5,11.252C5.677,11.252 5,10.575 5,9.752L5,5.752ZM6.5,5.252C6.226,5.252 6,5.478 6,5.752L6,9.752C6,10.026 6.226,10.252 6.5,10.252L10.5,10.252C10.774,10.252 11,10.026 11,9.752L11,5.752C11,5.478 10.774,5.252 10.5,5.252L6.5,5.252Z" style="fill:rgb(23,23,23);stroke:rgb(23,23,23);stroke-width:0.63px;"/>
                <path d="M11.146,5.605C10.952,5.411 10.952,5.092 11.146,4.898L14.146,1.898C14.24,1.804 14.367,1.751 14.5,1.751C14.774,1.751 15,1.977 15,2.252C15,2.384 14.948,2.511 14.854,2.605L11.854,5.605C11.76,5.699 11.633,5.752 11.5,5.752C11.367,5.752 11.24,5.699 11.146,5.605M14.854,13.605C14.76,13.699 14.633,13.752 14.5,13.752C14.367,13.752 14.24,13.699 14.146,13.605L11.146,10.605C11.056,10.512 11.006,10.387 11.006,10.258C11.006,9.983 11.231,9.758 11.506,9.758C11.635,9.758 11.76,9.808 11.853,9.898L14.853,12.898C15.047,13.092 15.047,13.411 14.853,13.605" style="fill:rgb(23,23,23);stroke:rgb(23,23,23);stroke-width:0.63px;"/>
            </g>
        </g>
    </g>
</svg>
