<?xml version="1.0" encoding="UTF-8" standalone="no"?>
<!DOCTYPE svg PUBLIC "-//W3C//DTD SVG 1.1//EN" "http://www.w3.org/Graphics/SVG/1.1/DTD/svg11.dtd">
<svg width="100%" height="100%" viewBox="0 0 24 24" version="1.1" xmlns="http://www.w3.org/2000/svg" xmlns:xlink="http://www.w3.org/1999/xlink" xml:space="preserve" xmlns:serif="http://www.serif.com/" style="fill-rule:evenodd;clip-rule:evenodd;stroke-linejoin:round;stroke-miterlimit:2;">
    <g transform="matrix(1.12696,0,0,1.12696,0,-1.13588)">
        <g transform="matrix(0.887343,0,0,0.887343,0,1.00792)">
            <path d="M9.092,6.495C10.528,6.495 11.69,7.657 11.69,9.092C11.69,10.528 10.528,11.69 9.092,11.69C7.657,11.69 6.495,10.528 6.495,9.092C6.495,7.657 7.657,6.495 9.092,6.495Z" style="fill:rgb(23,23,23);"/>
        </g>
        <g transform="matrix(0.887343,0,0,0.887343,0,1.00792)">
            <path d="M8.067,15.587L1.299,15.587C0.583,15.587 0,15.004 0,14.288L0,3.897C0,3.181 0.583,2.598 1.299,2.598L5.196,2.598L5.196,1.299C5.196,0.583 5.779,0 6.495,0L11.69,0C12.406,0 12.989,0.583 12.989,1.299L12.989,2.598L16.886,2.598C17.601,2.598 18.185,3.181 18.185,3.897L18.185,8.777L14.279,8.777C14.116,6.052 11.858,3.897 9.092,3.897C6.226,3.897 3.897,6.22 3.897,9.092C3.897,11.613 5.69,13.711 8.067,14.187L8.067,15.587Z" style="fill:rgb(23,23,23);"/>
        </g>
    </g>
    <g transform="matrix(2.14171,-0.433025,0.433025,2.14171,-6555.32,-6001.97)">
        <path d="M2399.89,3298.1L2398.59,3296.81C2398.2,3296.42 2398.2,3295.78 2398.59,3295.39C2398.78,3295.21 2399.03,3295.1 2399.3,3295.1C2399.57,3295.1 2399.82,3295.21 2400.01,3295.39L2401.01,3296.39L2401.3,3296.69L2402.8,3295.19L2403.09,3294.89L2404.09,3293.89C2404.48,3293.5 2405.12,3293.5 2405.51,3293.89C2405.7,3294.08 2405.8,3294.33 2405.8,3294.6C2405.8,3294.87 2405.7,3295.12 2405.51,3295.31L2404.51,3296.31L2404.21,3296.6L2404.01,3296.81L2403.21,3297.6L2403.11,3297.7C2403.09,3297.73 2403.07,3297.75 2403.05,3297.77L2402.71,3298.1L2402.07,3298.73C2401.88,3298.95 2401.6,3299.09 2401.3,3299.09C2401.03,3299.09 2400.78,3298.98 2400.59,3298.79C2400.58,3298.78 2400.57,3298.77 2400.56,3298.75L2399.89,3298.1Z" style="fill:rgb(56,177,0);"/>
    </g>
</svg>
