<?xml version="1.0" encoding="UTF-8" standalone="no"?>
<!DOCTYPE svg PUBLIC "-//W3C//DTD SVG 1.1//EN" "http://www.w3.org/Graphics/SVG/1.1/DTD/svg11.dtd">
<svg width="100%" height="100%" viewBox="0 0 24 24" version="1.1" xmlns="http://www.w3.org/2000/svg" xmlns:xlink="http://www.w3.org/1999/xlink" xml:space="preserve" xmlns:serif="http://www.serif.com/" style="fill-rule:evenodd;clip-rule:evenodd;stroke-linejoin:round;stroke-miterlimit:2;">
    <g transform="matrix(1.12696,0,0,1.12696,0,-1.13588)">
        <g transform="matrix(0.887343,0,0,0.887343,0,1.00792)">
            <path d="M9.092,6.495C10.528,6.495 11.69,7.657 11.69,9.092C11.69,10.528 10.528,11.69 9.092,11.69C7.657,11.69 6.495,10.528 6.495,9.092C6.495,7.657 7.657,6.495 9.092,6.495Z" style="fill:rgb(23,23,23);"/>
        </g>
        <g transform="matrix(0.887343,0,0,0.887343,0,1.00792)">
            <path d="M8.067,15.587L1.299,15.587C0.583,15.587 0,15.004 0,14.288L0,3.897C0,3.181 0.583,2.598 1.299,2.598L5.196,2.598L5.196,1.299C5.196,0.583 5.779,0 6.495,0L11.69,0C12.406,0 12.989,0.583 12.989,1.299L12.989,2.598L16.886,2.598C17.601,2.598 18.185,3.181 18.185,3.897L18.185,8.777L14.279,8.777C14.116,6.052 11.858,3.897 9.092,3.897C6.226,3.897 3.897,6.22 3.897,9.092C3.897,11.613 5.69,13.711 8.067,14.187L8.067,15.587Z" style="fill:rgb(23,23,23);"/>
        </g>
    </g>
    <g transform="matrix(0.871897,0,0,0.871897,10.0497,10.0513)">
        <path d="M7.406,1C6.793,1.008 6.172,1.09 5.559,1.254C2.285,2.133 0,5.109 0,8.5C0,11.891 2.285,14.867 5.559,15.742C8.832,16.621 12.301,15.184 13.996,12.25C14.273,11.77 14.105,11.16 13.629,10.883C13.152,10.609 12.539,10.773 12.262,11.25C11.016,13.41 8.484,14.457 6.074,13.812C3.668,13.168 2,10.992 2,8.5C2,6.004 3.668,3.832 6.074,3.187C8.484,2.543 11.016,3.59 12.262,5.75C12.32,5.836 12.387,5.914 12.465,5.977L12.445,5.992L12.438,6L11,6C10.449,6 10,6.449 10,7C10,7 10,8 11,8L16,8L16,3C16,3 16.004,2 15,2C14.449,2 14,2.449 14,3L14,4.687L13.984,4.699L13.973,4.711C12.695,2.531 10.441,1.191 8.02,1.02C7.816,1.004 7.613,1 7.406,1Z" style="fill:rgb(154,153,150);fill-rule:nonzero;"/>
    </g>
</svg>
