<?xml version="1.0" encoding="UTF-8" standalone="no"?>
<!DOCTYPE svg PUBLIC "-//W3C//DTD SVG 1.1//EN" "http://www.w3.org/Graphics/SVG/1.1/DTD/svg11.dtd">
<svg width="100%" height="100%" viewBox="0 0 24 24" version="1.1" xmlns="http://www.w3.org/2000/svg" xmlns:xlink="http://www.w3.org/1999/xlink" xml:space="preserve" xmlns:serif="http://www.serif.com/" style="fill-rule:evenodd;clip-rule:evenodd;stroke-linejoin:round;stroke-miterlimit:2;">
    <g transform="matrix(1.12696,0,0,1.12696,0,-1.13588)">
        <g transform="matrix(0.887343,0,0,0.887343,0,1.00792)">
            <path d="M9.092,6.495C10.528,6.495 11.69,7.657 11.69,9.092C11.69,10.528 10.528,11.69 9.092,11.69C7.657,11.69 6.495,10.528 6.495,9.092C6.495,7.657 7.657,6.495 9.092,6.495Z" style="fill:rgb(23,23,23);"/>
        </g>
        <g transform="matrix(0.887343,0,0,0.887343,0,1.00792)">
            <path d="M8.067,15.587L1.299,15.587C0.583,15.587 0,15.004 0,14.288L0,3.897C0,3.181 0.583,2.598 1.299,2.598L5.196,2.598L5.196,1.299C5.196,0.583 5.779,0 6.495,0L11.69,0C12.406,0 12.989,0.583 12.989,1.299L12.989,2.598L16.886,2.598C17.601,2.598 18.185,3.181 18.185,3.897L18.185,8.777L14.279,8.777C14.116,6.052 11.858,3.897 9.092,3.897C6.226,3.897 3.897,6.22 3.897,9.092C3.897,11.613 5.69,13.711 8.067,14.187L8.067,15.587Z" style="fill:rgb(23,23,23);"/>
        </g>
        <g transform="matrix(1.8388,0,0,1.8388,-4399.74,-6047.77)">
            <path d="M2399.3,3295.1C2399.03,3295.1 2398.78,3295.21 2398.59,3295.39C2398.2,3295.78 2398.2,3296.42 2398.59,3296.81L2399.89,3298.1L2398.59,3299.39C2398.2,3299.78 2398.2,3300.42 2398.59,3300.81C2398.98,3301.2 2399.62,3301.2 2400.01,3300.81L2401.3,3299.51L2402.59,3300.81C2402.98,3301.2 2403.62,3301.2 2404.01,3300.81C2404.4,3300.42 2404.4,3299.78 2404.01,3299.39L2402.71,3298.1L2404.01,3296.81C2404.4,3296.42 2404.4,3295.78 2404.01,3295.39C2403.82,3295.21 2403.57,3295.1 2403.3,3295.1C2403.03,3295.1 2402.78,3295.21 2402.59,3295.39L2401.3,3296.69L2400.01,3295.39C2399.82,3295.21 2399.57,3295.1 2399.3,3295.1Z" style="fill:rgb(184,19,26);fill-rule:nonzero;"/>
        </g>
    </g>
</svg>
