<?xml version="1.0" encoding="UTF-8" standalone="no"?>
<!DOCTYPE svg PUBLIC "-//W3C//DTD SVG 1.1//EN" "http://www.w3.org/Graphics/SVG/1.1/DTD/svg11.dtd">
<svg width="100%" height="100%" viewBox="0 0 16 16" version="1.1" xmlns="http://www.w3.org/2000/svg" xmlns:xlink="http://www.w3.org/1999/xlink" xml:space="preserve" xmlns:serif="http://www.serif.com/" style="fill-rule:evenodd;clip-rule:evenodd;stroke-linejoin:round;stroke-miterlimit:2;">
    <g transform="matrix(0.999335,0,0,0.999335,-0.999335,-1.99867)">
        <path d="M6,2C5.449,2 5,2.449 5,3L5,4L2,4C1.449,4 1,4.449 1,5L1,13C1,13.551 1.449,14 2,14L14,14C14.551,14 15,13.551 15,13L15,5C15,4.449 14.551,4 14,4L11,4L11,3C11,2.449 10.551,2 10,2L6,2ZM8,5C10.211,5 12,6.789 12,9C12,11.211 10.211,13 8,13C5.793,13 4,11.211 4,9C4,6.789 5.793,5 8,5ZM8,7C6.895,7 6,7.895 6,9C6,10.105 6.895,11 8,11C9.105,11 10,10.105 10,9C10,7.895 9.105,7 8,7Z" style="fill:rgb(254,254,254);fill-rule:nonzero;"/>
    </g>
    <g transform="matrix(1.20044,0,0,1.20044,-2872.02,-3944.35)">
        <path d="M2399.89,3298.1L2398.59,3296.81C2398.2,3296.42 2398.2,3295.78 2398.59,3295.39C2398.78,3295.21 2399.03,3295.1 2399.3,3295.1C2399.57,3295.1 2399.82,3295.21 2400.01,3295.39L2401.01,3296.39L2401.3,3296.69L2401.8,3296.19L2402.8,3295.19L2403.09,3294.89L2404.09,3293.89C2404.48,3293.5 2405.12,3293.5 2405.51,3293.89C2405.7,3294.08 2405.8,3294.33 2405.8,3294.6C2405.8,3294.87 2405.7,3295.12 2405.51,3295.31L2404.51,3296.31L2404.21,3296.6L2404.01,3296.81L2403.21,3297.6L2403.11,3297.7C2403.09,3297.73 2403.07,3297.75 2403.05,3297.77L2402.71,3298.1L2402.07,3298.73C2401.88,3298.95 2401.6,3299.09 2401.3,3299.09C2401.03,3299.09 2400.78,3298.98 2400.59,3298.79C2400.58,3298.78 2400.57,3298.77 2400.56,3298.75L2399.89,3298.1L2399.89,3298.1Z" style="fill:rgb(56,177,0);"/>
    </g>
</svg>
