<?xml version="1.0" encoding="UTF-8" standalone="no"?>
<!DOCTYPE svg PUBLIC "-//W3C//DTD SVG 1.1//EN" "http://www.w3.org/Graphics/SVG/1.1/DTD/svg11.dtd">
<svg width="100%" height="100%" viewBox="0 0 16 16" version="1.1" xmlns="http://www.w3.org/2000/svg" xmlns:xlink="http://www.w3.org/1999/xlink" xml:space="preserve" xmlns:serif="http://www.serif.com/" style="fill-rule:evenodd;clip-rule:evenodd;stroke-linejoin:round;stroke-miterlimit:2;">
    <g transform="matrix(0.999335,0,0,0.999335,-0.999335,-1.99867)">
        <path d="M6,2C5.449,2 5,2.449 5,3L5,4L2,4C1.449,4 1,4.449 1,5L1,13C1,13.551 1.449,14 2,14L14,14C14.551,14 15,13.551 15,13L15,5C15,4.449 14.551,4 14,4L11,4L11,3C11,2.449 10.551,2 10,2L6,2ZM8,5C10.211,5 12,6.789 12,9C12,11.211 10.211,13 8,13C5.793,13 4,11.211 4,9C4,6.789 5.793,5 8,5ZM8,7C6.895,7 6,7.895 6,9C6,10.105 6.895,11 8,11C9.105,11 10,10.105 10,9C10,7.895 9.105,7 8,7Z" style="fill:rgb(254,254,254);fill-rule:nonzero;"/>
    </g>
    <g transform="matrix(0.479682,0,0,0.479682,8.1,8.12032)">
        <path d="M7.406,1C6.793,1.008 6.172,1.09 5.559,1.254C2.285,2.133 0,5.109 0,8.5C0,11.891 2.285,14.867 5.559,15.742C8.832,16.621 12.301,15.184 13.996,12.25C14.273,11.77 14.105,11.16 13.629,10.883C13.152,10.609 12.539,10.773 12.262,11.25C11.016,13.41 8.484,14.457 6.074,13.812C3.668,13.168 2,10.992 2,8.5C2,6.004 3.668,3.832 6.074,3.187C8.484,2.543 11.016,3.59 12.262,5.75C12.32,5.836 12.387,5.914 12.465,5.977L12.445,5.992L12.438,6L11,6C10.449,6 10,6.449 10,7C10,7 10,8 11,8L16,8L16,3C16,3 16.004,2 15,2C14.449,2 14,2.449 14,3L14,4.687L13.984,4.699L13.973,4.711C12.695,2.531 10.441,1.191 8.02,1.02C7.816,1.004 7.613,1 7.406,1Z" style="fill:rgb(154,153,150);fill-rule:nonzero;stroke:rgb(154,153,150);stroke-width:0.63px;"/>
    </g>
</svg>
