<?xml version="1.0" encoding="UTF-8" standalone="no"?>
<!DOCTYPE svg PUBLIC "-//W3C//DTD SVG 1.1//EN" "http://www.w3.org/Graphics/SVG/1.1/DTD/svg11.dtd">
<svg width="100%" height="100%" viewBox="0 0 16 16" version="1.1" xmlns="http://www.w3.org/2000/svg" xmlns:xlink="http://www.w3.org/1999/xlink" xml:space="preserve" xmlns:serif="http://www.serif.com/" style="fill-rule:evenodd;clip-rule:evenodd;stroke-linejoin:round;stroke-miterlimit:2;">
    <g transform="matrix(0.999335,0,0,0.999335,-0.999335,-1.99867)">
        <path d="M6,2C5.449,2 5,2.449 5,3L5,4L2,4C1.449,4 1,4.449 1,5L1,13C1,13.551 1.449,14 2,14L14,14C14.551,14 15,13.551 15,13L15,5C15,4.449 14.551,4 14,4L11,4L11,3C11,2.449 10.551,2 10,2L6,2ZM8,5C10.211,5 12,6.789 12,9C12,11.211 10.211,13 8,13C5.793,13 4,11.211 4,9C4,6.789 5.793,5 8,5ZM8,7C6.895,7 6,7.895 6,9C6,10.105 6.895,11 8,11C9.105,11 10,10.105 10,9C10,7.895 9.105,7 8,7Z" style="fill:rgb(254,254,254);fill-rule:nonzero;"/>
    </g>
    <g transform="matrix(1.20044,0,0,1.20044,-2870.22,-3946.77)">
        <path d="M2399.3,3295.1C2399.03,3295.1 2398.78,3295.21 2398.59,3295.39C2398.2,3295.78 2398.2,3296.42 2398.59,3296.81L2399.89,3298.1L2398.59,3299.39C2398.2,3299.78 2398.2,3300.42 2398.59,3300.81C2398.98,3301.2 2399.62,3301.2 2400.01,3300.81L2401.3,3299.51L2402.59,3300.81C2402.98,3301.2 2403.62,3301.2 2404.01,3300.81C2404.4,3300.42 2404.4,3299.78 2404.01,3299.39L2402.71,3298.1L2404.01,3296.81C2404.4,3296.42 2404.4,3295.78 2404.01,3295.39C2403.82,3295.21 2403.57,3295.1 2403.3,3295.1C2403.03,3295.1 2402.78,3295.21 2402.59,3295.39L2401.3,3296.69L2400.01,3295.39C2399.82,3295.21 2399.57,3295.1 2399.3,3295.1Z" style="fill:rgb(184,19,26);fill-rule:nonzero;"/>
    </g>
</svg>
