<?xml version="1.0" encoding="UTF-8" standalone="no"?>
<!DOCTYPE svg PUBLIC "-//W3C//DTD SVG 1.1//EN" "http://www.w3.org/Graphics/SVG/1.1/DTD/svg11.dtd">
<svg width="100%" height="100%" viewBox="0 0 24 24" version="1.1" xmlns="http://www.w3.org/2000/svg" xmlns:xlink="http://www.w3.org/1999/xlink" xml:space="preserve" xmlns:serif="http://www.serif.com/" style="fill-rule:evenodd;clip-rule:evenodd;stroke-linejoin:round;stroke-miterlimit:2;">
    <g transform="matrix(1.15842,0,0,1.15842,-2.77036,-1.90106)">
        <g>
            <g>
                <path d="M14.5,22C14.083,22 13.729,21.854 13.438,21.563C13.147,21.272 13.001,20.917 13,20.5L13,15.5C13,15.083 13.146,14.729 13.438,14.438C13.73,14.147 14.084,14.001 14.5,14L16,14L16.7,13.3C16.8,13.2 16.913,13.125 17.038,13.075C17.163,13.025 17.292,13 17.425,13L18.575,13C18.708,13 18.837,13.025 18.962,13.075C19.087,13.125 19.199,13.2 19.3,13.3L20,14L21.5,14C21.917,14 22.271,14.146 22.562,14.438C22.853,14.73 22.999,15.084 23,15.5L23,20.5C23,20.917 22.854,21.271 22.563,21.563C22.272,21.855 21.917,22.001 21.5,22L14.5,22ZM18,20C18.55,20 19.021,19.804 19.413,19.413C19.805,19.022 20.001,18.551 20,18C19.999,17.449 19.804,16.979 19.413,16.588C19.022,16.197 18.551,16.001 18,16C17.449,15.999 16.978,16.195 16.588,16.588C16.198,16.981 16.002,17.452 16,18C15.998,18.548 16.194,19.019 16.588,19.413C16.982,19.807 17.453,20.003 18,20M10.275,22C9.992,22 9.742,21.908 9.525,21.725C9.308,21.542 9.183,21.308 9.15,21.025L8.85,18.8C8.633,18.717 8.429,18.617 8.237,18.5C8.045,18.383 7.858,18.258 7.675,18.125L6.125,18.775C5.708,18.958 5.292,18.975 4.875,18.825C4.458,18.675 4.133,18.408 3.9,18.025L2.725,15.975C2.492,15.592 2.425,15.183 2.525,14.75C2.625,14.317 2.85,13.958 3.2,13.675L4.525,12.675C4.508,12.558 4.5,12.446 4.5,12.337L4.5,11.662C4.5,11.554 4.508,11.442 4.525,11.325L3.2,10.325C2.85,10.042 2.625,9.683 2.525,9.25C2.425,8.817 2.492,8.408 2.725,8.025L3.9,5.975C4.133,5.592 4.458,5.325 4.875,5.175C5.292,5.025 5.708,5.042 6.125,5.225L7.675,5.875C7.858,5.742 8.05,5.617 8.25,5.5C8.45,5.383 8.65,5.283 8.85,5.2L9.05,3.55C9.1,3.1 9.292,2.729 9.625,2.437C9.958,2.145 10.35,1.999 10.8,2L13.2,2C13.65,2 14.042,2.146 14.375,2.438C14.708,2.73 14.9,3.101 14.95,3.55L15.15,5.2C15.367,5.283 15.571,5.383 15.763,5.5C15.955,5.617 16.142,5.742 16.325,5.875L17.825,5.225C18.242,5.042 18.663,5.025 19.088,5.175C19.513,5.325 19.842,5.592 20.075,5.975L21.25,8.025C21.483,8.408 21.554,8.817 21.463,9.25C21.372,9.683 21.151,10.042 20.8,10.325L19.125,11.6C18.942,11.733 18.754,11.833 18.563,11.9C18.372,11.967 18.159,12 17.925,12L15.575,12C15.575,11.033 15.229,10.208 14.538,9.525C13.847,8.842 13.017,8.5 12.05,8.5C11.067,8.5 10.237,8.838 9.562,9.513C8.887,10.188 8.549,11.017 8.55,12C8.55,12.8 8.779,13.5 9.238,14.1C9.697,14.7 10.284,15.117 11,15.35L11,21.15C11,21.383 10.933,21.583 10.8,21.75C10.667,21.917 10.492,22 10.275,22" style="fill:rgb(23,23,23);fill-rule:nonzero;"/>
            </g>
        </g>
    </g>
</svg>
