<?xml version="1.0" encoding="UTF-8" standalone="no"?>
<!DOCTYPE svg PUBLIC "-//W3C//DTD SVG 1.1//EN" "http://www.w3.org/Graphics/SVG/1.1/DTD/svg11.dtd">
<svg width="100%" height="100%" viewBox="0 0 24 24" version="1.1" xmlns="http://www.w3.org/2000/svg" xmlns:xlink="http://www.w3.org/1999/xlink" xml:space="preserve" xmlns:serif="http://www.serif.com/" style="fill-rule:evenodd;clip-rule:evenodd;stroke-linejoin:round;stroke-miterlimit:2;">
    <g transform="matrix(0.884055,0,0,0.884055,12,13.1696)">
        <g transform="matrix(1,0,0,1,-16,-16)">
            <g transform="matrix(1.33333,0,0,1.33333,0,0)">
                <path d="M21.3,7C21.117,7 20.954,6.933 20.812,6.8C20.67,6.667 20.599,6.508 20.6,6.325C20.6,5.225 20.221,4.296 19.463,3.538C18.705,2.78 17.776,2.401 16.675,2.4C16.492,2.4 16.333,2.329 16.2,2.188C16.067,2.047 16,1.884 16,1.7C16,1.516 16.067,1.358 16.2,1.225C16.333,1.092 16.492,1.026 16.675,1.025C18.142,1.025 19.392,1.542 20.425,2.575C21.458,3.608 21.975,4.858 21.975,6.325C21.975,6.508 21.908,6.667 21.775,6.8C21.642,6.933 21.483,7 21.3,7M18.6,7C18.417,7 18.254,6.938 18.112,6.813C17.97,6.688 17.899,6.534 17.9,6.35C17.9,6 17.779,5.704 17.538,5.463C17.297,5.222 17.001,5.101 16.65,5.1C16.467,5.1 16.313,5.029 16.188,4.888C16.063,4.747 16.001,4.584 16,4.4C15.999,4.216 16.066,4.058 16.2,3.925C16.334,3.792 16.492,3.726 16.675,3.725C17.392,3.725 18.004,3.979 18.513,4.488C19.022,4.997 19.276,5.609 19.275,6.325C19.275,6.508 19.208,6.667 19.075,6.8C18.942,6.933 18.783,7 18.6,7M12,17.5C13.25,17.5 14.313,17.063 15.188,16.188C16.063,15.313 16.501,14.251 16.5,13C16.499,11.749 16.062,10.687 15.188,9.813C14.314,8.939 13.251,8.501 12,8.5C10.749,8.499 9.686,8.936 8.813,9.813C7.94,10.69 7.502,11.752 7.5,13C7.498,14.248 7.936,15.311 8.813,16.188C9.69,17.065 10.753,17.503 12,17.5M12,15.5C11.3,15.5 10.708,15.258 10.225,14.775C9.742,14.292 9.5,13.7 9.5,13C9.5,12.3 9.742,11.708 10.225,11.225C10.708,10.742 11.3,10.5 12,10.5C12.7,10.5 13.292,10.742 13.775,11.225C14.258,11.708 14.5,12.3 14.5,13C14.5,13.7 14.258,14.292 13.775,14.775C13.292,15.258 12.7,15.5 12,15.5M4,21C3.45,21 2.979,20.804 2.588,20.413C2.197,20.022 2.001,19.551 2,19L2,7C2,6.45 2.196,5.979 2.588,5.588C2.98,5.197 3.451,5.001 4,5L7.15,5L8.4,3.65C8.583,3.45 8.804,3.292 9.063,3.175C9.322,3.058 9.592,3 9.875,3L14,3C14.283,3 14.521,3.096 14.713,3.288C14.905,3.48 15.001,3.717 15,4L15,6C15.55,6 16.021,6.196 16.413,6.588C16.805,6.98 17.001,7.451 17,8L21,8C21.283,8 21.521,8.096 21.713,8.288C21.905,8.48 22.001,8.717 22,9L22,19C22,19.55 21.804,20.021 21.413,20.413C21.022,20.805 20.551,21.001 20,21L4,21Z" style="fill:white;fill-rule:nonzero;"/>
            </g>
        </g>
    </g>
</svg>
