<?xml version="1.0" encoding="UTF-8" standalone="no"?>
<svg xmlns="http://www.w3.org/2000/svg" width="16" viewBox="0 0 16 16" version="1.1" height="16">
    <g transform="translate(-100,-380.00032)">
        <path d="m 108,382 a 8,8 0 0 0 -7.73828,6.00977 A 8,8 0 0 0 108,394 8,8 0 0 0 115.73828,387.99023 8,8 0 0 0 108,382 Z m 0,2 a 4,4 0 0 1 4,4 4,4 0 0 1 -4,4 4,4 0 0 1 -4,-4 4,4 0 0 1 4,-4 z" style="fill:#171717;fill-opacity:1"/>
        <path d="m 110,388.00003 a 2,2 0 0 1 -2,2 2,2 0 0 1 -2,-2 2,2 0 0 1 2,-2 2,2 0 0 1 2,2 z" style="fill:#171717;fill-opacity:1"/>
        <path d="M 102,394.5 L 114,381.5" stroke="#171717" stroke-width="1.6" stroke-linecap="round"/>
    </g>
</svg>
