<svg xmlns="http://www.w3.org/2000/svg" viewBox="0 0 24 24" fill="currentColor">
  <path d="M12 10.8c-1.087-2.114-4.046-6.053-6.798-7.995C2.566.944 1.561 1.266.902 2.104.139 3.309.139 5.424.139 6.578c0 .994.68 6.387.831 7.138.151.751.832 2.676 3.013 2.676 1.489 0 2.498-.868 3.176-1.526.678-.658.991-1.382.991-1.382s.313.724.991 1.382c.678.658 1.687 1.526 3.176 1.526 2.181 0 2.862-1.925 3.013-2.676.151-.751.831-6.144.831-7.138 0-1.154 0-3.269-.763-4.474-.659-.938-1.664-1.26-3.3-.399-2.752 1.942-5.711 5.881-6.798 7.995z"/>
  <path d="M17.977 14.963c.407.32 1.25.613 1.729.613 1.004 0 2.293-.872 2.293-1.872s-1.289-1.872-2.293-1.872c-.479 0-1.322.293-1.729.613-.29.229-.383.534-.383.659s.093.43.383.659z"/>
  <path d="M6.023 14.963c-.407.32-1.25.613-1.729.613-1.004 0-2.293-.872-2.293-1.872s1.289-1.872 2.293-1.872c.479 0 1.322.293 1.729.613.29.229.383.534.383.659s-.093.43-.383.659z"/>
</svg>